<?xml version="1.0" ?><svg height="200" id="svg2" version="1.1" width="200" xmlns="http://www.w3.org/2000/svg" xmlns:cc="http://creativecommons.org/ns#" xmlns:dc="http://purl.org/dc/elements/1.1/" xmlns:inkscape="http://www.inkscape.org/namespaces/inkscape" xmlns:rdf="http://www.w3.org/1999/02/22-rdf-syntax-ns#" xmlns:sodipodi="http://sodipodi.sourceforge.net/DTD/sodipodi-0.dtd" xmlns:svg="http://www.w3.org/2000/svg"><defs id="defs4"><clipPath clipPathUnits="userSpaceOnUse" id="clipPath18"><path d="m 0,551.986 530.973,0 L 530.973,0 0,0 0,551.986 z" id="path20"/></clipPath><clipPath clipPathUnits="userSpaceOnUse" id="clipPath18-7"><path d="m 0,551.986 530.973,0 L 530.973,0 0,0 0,551.986 z" id="path20-4"/></clipPath></defs><g id="layer1" style="display:inline" transform="translate(0,-852.36218)"><path d="m 100,10 c -49.70563,0 -90,40.29437 -90,90 0,49.70572 40.29437,90 90,90 0.75044,0 1.47964,-0.084 2.21875,-0.125 0.26003,-0.014 0.52093,-0.0182 0.78125,-0.0312 0.93792,-0.046 1.87645,-0.096 2.8125,-0.15625 0.96378,-0.062 1.89076,-0.24545 2.84375,-0.34375 2.0633,-0.2128 4.13392,-0.4029 6.15625,-0.75 0.78624,-0.13493 1.53236,-0.37838 2.3125,-0.53125 2.60227,-0.50991 5.20544,-1.02204 7.71875,-1.75 5.67307,-1.6433 11.11833,-3.782 16.28125,-6.4375 18.08925,-9.3041 32.44221,-24.61048 40.78125,-43.21875 0.0631,-0.14086 0.15632,-0.26501 0.21875,-0.40625 1.70139,-3.84911 3.2178,-7.79522 4.375,-11.90625 0.46009,-1.63449 0.77841,-3.32241 1.125,-5 0.16252,-0.78665 0.37485,-1.55459 0.53125,-2.34375 0.1628,-0.82145 0.4264,-1.606 0.5625,-2.4375 0.31126,-1.90166 0.40556,-3.87224 0.59375,-5.8125 0.17397,-1.79362 0.45022,-3.55437 0.53125,-5.375 0.05,-1.12451 0.15625,-2.23807 0.15625,-3.375 0,-3.65022 -0.29637,-7.21352 -0.71875,-10.75 -0.0857,-0.71775 -0.24127,-1.41252 -0.34375,-2.125 C 182.66932,43.54488 145.31458,10 100,10 z" id="path7037" style="fill:#bd081c;fill-opacity:1;stroke:none" transform="translate(0,852.36218)"/><path d="" id="path6013" style="fill:#000000"/><path d="" id="path6011" style="fill:#000000"/><path d="" id="path6009" style="fill:#000000"/></g><g id="layer16" style="display:inline"/><g id="layer15" style="display:inline"><path d="m 78.795771,149.80419 c -0.24586,-0.24586 -0.44208,-1.40467 -0.87084,-5.14295 -0.65563,-5.71631 -0.73328,-10.98273 -0.22032,-14.94203 0.12242,-0.94496 1.82407,-8.48492 3.87222,-17.15777 l 3.65381,-15.472013 -0.34855,-0.8578 c -0.19171,-0.47179 -0.49337,-1.42498 -0.67037,-2.11821 -2.31553,-9.06902 0.76598,-17.75814 7.16628,-20.20726 1.2386,-0.47396 3.46925,-0.64186 4.81523,-0.36244 3.55935,0.73892 5.790439,3.92663 5.788619,8.27057 -10e-4,2.77703 -0.45123,4.80274 -2.778079,12.50381 -1.99442,6.600873 -2.43185,8.393083 -2.43185,9.963623 0,3.98243 2.50875,7.23617 6.513189,8.4473 1.40298,0.42433 4.47065,0.3864 6.28331,-0.0777 6.75718,-1.72998 12.02448,-7.98156 14.33314,-17.011503 0.87375,-3.4175 1.12522,-5.63903 1.12976,-9.98046 0.004,-3.66901 -0.0211,-4.02597 -0.40792,-5.83912 -1.11883,-5.24426 -3.35148,-9.31655 -6.96177,-12.69805 -5.98781,-5.60836 -15.19756,-7.82565 -24.456529,-5.88802 -8.12626,1.70058 -14.75104,6.83859 -18.25397,14.15734 -1.47838,3.08879 -2.26387,5.98569 -2.56486,9.45916 -0.45259,5.22314 1.07487,11.13394 3.93792,15.238493 0.45022,0.64545 0.86387,1.354 0.91923,1.57456 0.0659,0.26279 -0.22802,1.73353 -0.85287,4.26689 -1.21669,4.93289 -1.26409,4.99007 -3.296,3.97599 -1.42358,-0.71047 -2.599,-1.60399 -4.08243,-3.10335 -4.10336,-4.1474 -7.02382,-10.983293 -7.6545,-17.916813 -0.40405,-4.44195 0.46443,-10.55792 2.15629,-15.18494 1.19645,-3.27217 3.30794,-7.02087 5.5224,-9.80443 1.2884,-1.6195 4.42765,-4.68279 6.02648,-5.88065 3.62035,-2.71243 7.80232,-4.77938 12.45047,-6.15368 5.84838,-1.72917 13.224799,-2.30547 19.373259,-1.51358 15.33921,1.97559 27.45321,12.29292 30.85724,26.28067 1.68311,6.91618 1.21862,15.24696 -1.27247,22.82217 -3.94605,11.999663 -12.71893,20.493433 -23.41905,22.673973 -3.3028,0.67307 -6.7726,0.75585 -9.35174,0.22312 -4.053039,-0.83718 -7.732999,-2.92914 -9.561799,-5.43563 -0.4299,-0.58921 -0.80025,-1.05231 -0.823,-1.0291 -0.0227,0.0232 -0.91478,3.38691 -1.98229,7.47489 -1.06752,4.08799 -2.14194,8.03814 -2.38759,8.77812 -1.31257,3.95385 -4.74487,10.63341 -8.17597,15.91115 -1.29654,1.99434 -1.52882,2.20091 -1.97408,1.75565 z" id="path7028" style="fill:#ececec;fill-opacity:1;stroke:none"/><path d="M 99,9.9999995 C 49.294369,9.9999995 9,50.294369 9,99.999998 9,149.70566 49.29437,190 99,190 L 99,9.9999995 z" id="rect2995" style="opacity:0.15;fill:#ffffff;fill-opacity:1;fill-rule:nonzero;stroke:none;display:inline"/></g></svg>